<svg xmlns="http://www.w3.org/2000/svg" width="700" height="256" viewBox="-1 -1 524 191"><g id="graph0" class="graph" style="font-family:Times-Roman;font-size:14"><title>G</title><g id="node1" class="node"><title>c1</title><polygon style="fill:none;stroke:#000" points="259 40 374 40 374 4 259 4 259 40"/><text x="316" y="25" text-anchor="middle" style="font-family:Arial Italic;font-size:10">XmlMappingException</text></g><g id="node2" class="node"><title>c2</title><polygon style="fill:none;stroke:#000" points="88 112 321 112 321 76 88 76 88 112"/><text x="204" y="97" text-anchor="middle" style="font-family:Arial Regular;font-size:10">GenericMarshallingFailureException</text></g><g id="edge2" class="edge"><title>c1-&gt;c2</title><path style="fill:none;stroke:#000" d="M279,46C264,56 246,67 232,76"/><polygon style="fill:none;stroke:#000" points="278 43 288 40 282 48 278 43"/></g><g id="node8" class="node"><title>c5</title><polygon style="fill:none;stroke:#000" points="338 112 518 112 518 76 338 76 338 112"/><text x="428" y="97" text-anchor="middle" style="font-family:Arial Regular;font-size:10">ValidationFailureException</text></g><g id="edge8" class="edge"><title>c1-&gt;c5</title><path style="fill:none;stroke:#000" d="M353,46C368,56 386,67 400,76"/><polygon style="fill:none;stroke:#000" points="350 48 344 40 354 43 350 48"/></g><g id="node4" class="node"><title>c3</title><polygon style="fill:none;stroke:#000" points="5 184 191 184 191 148 5 148 5 184"/><text x="98" y="169" text-anchor="middle" style="font-family:Arial Regular;font-size:10">MarshallingFailureException</text></g><g id="edge4" class="edge"><title>c2-&gt;c3</title><path style="fill:none;stroke:#000" d="M168,118C154,128 138,139 124,148"/><polygon style="fill:none;stroke:#000" points="167 115 177 112 171 120 167 115"/></g><g id="node6" class="node"><title>c4</title><polygon style="fill:none;stroke:#000" points="209 184 413 184 413 148 209 148 209 184"/><text x="311" y="169" text-anchor="middle" style="font-family:Arial Regular;font-size:10">UnmarshallingFailureException</text></g><g id="edge6" class="edge"><title>c2-&gt;c4</title><path style="fill:none;stroke:#000" d="M240,118C254,128 271,139 284,148"/><polygon style="fill:none;stroke:#000" points="237 120 231 112 241 115 237 120"/></g></g></svg>